<?xml version="1.0" encoding="UTF-8"?> <!-- Generator: Adobe Illustrator 23.0.6, SVG Export Plug-In . SVG Version: 6.00 Build 0) --> <svg xmlns="http://www.w3.org/2000/svg" xmlns:xlink="http://www.w3.org/1999/xlink" id="Layer_1" x="0px" y="0px" viewBox="0 0 163 55" style="enable-background:new 0 0 163 55;" xml:space="preserve"> <style type="text/css"> .st0{fill-rule:evenodd;clip-rule:evenodd;fill:#FFFFFF;} </style> <g transform="translate(-.48 -.448)"> <g> <path class="st0" d="M66.2,18.5c0-1.2-0.8-2.2-1.8-2.3c-6.3-0.5-4.6-14.5-10.8-14.4c-3.3,0-14,13-16.3,13c-3,0-3.4-14.1-8.8-14.1 C25,0.7,10.2,15.2,6.1,18.2c-0.1,0.1-0.3,0.2-0.6,0.4l0.7-2.1c1.1-2.9,3.8-8.1,3.7-11.9c0-4.7-3.8-2.5-3.8,0.2 c0,1.7-2.8,8.1-3.4,9.8c-0.5,1.3-1.5,3.7-1.4,5c0,2.4,1.7,3.9,3.5,3.9c0.9,0,1.9-0.3,3.2-1.2c3.3-2.5,18.1-16.7,20.5-17 c1.8-0.2,3.1,14.2,8.8,14.1c4.3,0,13.6-12.5,16.5-13c1.9,0,2.4,14.1,10.7,14.3C65.5,20.9,66.2,19.8,66.2,18.5 M58.6,43.1v-2.7 h-3.8v2.7H54v-6h0.7v2.7h3.8v-2.7h0.7v6C59.3,43.1,58.6,43.1,58.6,43.1z M67.5,43.2c-0.9,0-1.7-0.3-2.4-0.9 c-0.6-0.6-0.9-1.3-0.9-2.2c0-0.9,0.3-1.7,0.9-2.2c0.6-0.6,1.4-0.9,2.4-0.9c1,0,1.8,0.3,2.4,0.9c0.6,0.6,1,1.3,1,2.2 c0,0.9-0.3,1.6-1,2.2C69.3,42.9,68.5,43.2,67.5,43.2 M67.6,37.7c-0.8,0-1.4,0.2-1.9,0.7c-0.5,0.5-0.7,1-0.7,1.8 c0,0.7,0.2,1.3,0.7,1.7c0.5,0.5,1.1,0.7,1.8,0.7c0.7,0,1.4-0.2,1.8-0.7c0.5-0.5,0.8-1.1,0.7-1.8c0-0.7-0.2-1.3-0.7-1.7 C68.9,37.9,68.3,37.7,67.6,37.7 M76.8,43.1v-5.4h-2.2v-0.6h5.2v0.6h-2.2v5.4H76.8z M84.4,43.1v-6h3.5v0.6h-2.7v2.1h2.6v0.6h-2.6 v2.1H88v0.6C88,43.1,84.4,43.1,84.4,43.1z M92.7,43.1v-6h0.7v5.4h2.9v0.6H92.7L92.7,43.1z M102.2,43.2c-0.6,0-1.2-0.2-1.6-0.5 v-0.9c0.5,0.5,1,0.8,1.6,0.8c0.3,0,0.6-0.1,0.8-0.3c0.2-0.2,0.3-0.4,0.3-0.6c0-0.4-0.3-0.8-0.9-1.1l-0.7-0.4 c-0.4-0.2-0.7-0.5-0.9-0.7c-0.2-0.2-0.3-0.5-0.3-0.8c0-0.5,0.2-0.8,0.5-1.1c0.3-0.3,0.8-0.4,1.3-0.4c0.5,0,1,0.1,1.4,0.4v0.8 c-0.4-0.4-0.9-0.5-1.4-0.5c-0.3,0-0.6,0.1-0.8,0.2c-0.2,0.2-0.3,0.3-0.3,0.6c0,0.2,0.1,0.4,0.2,0.6c0.2,0.2,0.4,0.3,0.7,0.5 l0.7,0.4c0.8,0.4,1.1,1,1.1,1.7c0,0.5-0.2,0.8-0.5,1.1C103.2,43,102.7,43.2,102.2,43.2 M141.8,2.9c0-1.9-1.2-2.1-2.3-2.1 c-2.5,0-9.8,0.9-23.6,9.3c-8.8-5.7-15.5-7.3-25.2-7.3c-0.6,0-2.9,0.3-3.5,0.3c-0.8,0-1.5-0.2-2.3-0.2c-0.8,0-1.5,1-1.5,2.1 c0,1,0.5,1.9,1.3,2.1c0.1,0,1.2,0.2,2.5,0.2c0.5,0,2.7-0.3,3.5-0.3c7.7,0,14.2,1.1,21.4,5.3c-7.7,4.2-12.2,6.8-20.5,6.8 c-3.2,0-6.5-1.7-6.5-1.7c-0.2-0.1-0.4-0.1-0.6-0.1c-0.9,0-1.6,0.9-1.6,2.1c0,0.8,0.4,1.6,1,1.9c0.2,0.1,3,2.1,7.7,2.1 c9.6,0,15.6-3.3,24.3-8.6c5.7,3.9,11.5,7.9,18.1,7.9c1.4,0,2.8-0.1,4.2-0.2c0.9-0.1,1.5-1.1,1.4-2.3c0-1.3-0.8-2-1.7-1.9 c-1.3,0.1-2.6,0.2-3.9,0.2c-5.4,0-10.5-3.2-14.4-5.9c12-6.9,18.2-7.5,20-7.5c0.2,0,0.5,0.1,0.7,0.1C141.2,5.1,141.8,4.1,141.8,2.9 M161.6,9.8c-0.4,0-0.7,0.1-1.1,0.3c0,0.1-1.1,0.2-4,2.6l-0.1-1.1c-0.1-2.6,0.1-6.6,0.2-8.1l0-0.3c-0.1-1.2-1-2.1-2.2-2 c-0.8,0-1.6,0.7-1.8,1.5c-0.6,2.2-1.2,8-5.2,8.2c-0.6,0-0.8-1.5-0.8-1.8c-0.2-1.8,0.2-3.9,0.6-5.7c0.1-0.2,0.1-0.4,0.1-0.6 c-0.1-1.1-1.1-2-2.2-2c-0.9,0-1.6,0.7-1.8,1.6c-0.6,2.3-0.9,4.7-0.8,7c0.2,2.8,2.1,5.8,5.1,5.7c2-0.1,4.2-1.7,5.1-3.6 c-0.1,1.4,0.1,3.8,0.1,3.8c-8.9,6.1-22.7,13-22,26.1c0.4,8.2,6.8,13.7,14.7,13.3c9.7-0.5,14.2-10.8,13.7-19.7 c-0.2-3.8-0.8-9.5-2-17.9c4.3-2.9,5.5-3.7,5.7-3.8c0.5-0.4,0.8-1,0.7-1.7C163.4,10.5,162.5,9.7,161.6,9.8 M145,50.4 c-5.5,0.3-10-3.4-10.3-9.2c-0.6-10.3,11.6-16.9,18.6-21.6c1.1,8.6,1.6,13,1.7,15.6C155.4,41.7,152.3,50,145,50.4 M79.5,5.2 c-0.7,0-1.3,0.1-1.7,0.2c-0.2-1.2-1.2-2-2.2-2c-0.3,0-0.6,0.1-0.8,0.2c-4.1,1.8-8.2,6-8.2,11c0,3.7,2.5,6.4,6,6.4 c4.8,0,11-6.3,11-11.4V8.9C83.2,6.5,81.6,5.2,79.5,5.2 M71.9,17c-1.1,0-1.8-0.5-1.8-1.8c0-3.5,3.5-6.3,6.1-7.7 c0.3,1.3,1.4,2.3,2.7,2.3c0.4,0,0.7-0.1,1-0.2C79.3,12.4,74.7,17,71.9,17"></path> </g> </g> </svg> 