<?xml version="1.0" encoding="UTF-8"?> <svg xmlns="http://www.w3.org/2000/svg" width="163" height="55" viewBox="0 0 163 55"><g fill="none" fill-rule="evenodd"><path fill="#221E1F" d="M57.915 43.324v-2.698h-3.78v2.698h-.741v-6.028h.741v2.676h3.78v-2.676h.745v6.028zM66.823 43.393c-.934 0-1.727-.293-2.355-.871-.618-.585-.934-1.321-.934-2.195 0-.897.316-1.651.944-2.236.627-.591 1.434-.884 2.397-.884.963 0 1.77.296 2.414.884.64.585.96 1.333.96 2.223 0 .884-.323 1.623-.967 2.208-.644.578-1.477.87-2.459.87m.088-5.515c-.752 0-1.38.23-1.867.692-.488.459-.732 1.05-.732 1.758 0 .685.247 1.27.732 1.726.488.462 1.109.695 1.844.695.729 0 1.357-.239 1.845-.704a2.33 2.33 0 0 0 .741-1.752c0-.676-.247-1.252-.741-1.714-.488-.465-1.103-.701-1.822-.701M76.163 43.324v-5.415h-2.196v-.623h5.179v.623H76.91v5.415zM83.757 43.311v-6.018h3.464v.622h-2.72v2.057h2.623v.626h-2.622v2.094h2.804v.62zM92.027 43.324v-6.028h.742v5.383h2.886v.645zM101.55 43.393a2.795 2.795 0 0 1-1.64-.526v-.852c.478.51 1.025.764 1.633.764.306 0 .57-.088.774-.251a.786.786 0 0 0 .32-.642c0-.412-.3-.789-.886-1.147l-.7-.412c-.425-.249-.731-.497-.907-.736a1.353 1.353 0 0 1-.263-.815c0-.462.172-.84.5-1.125.326-.29.772-.44 1.305-.44.501 0 .97.138 1.386.399v.77c-.436-.355-.91-.538-1.405-.538-.316 0-.583.073-.79.217-.212.154-.323.35-.323.585 0 .208.078.4.231.576.15.17.387.346.71.525l.699.402c.758.444 1.128.985 1.128 1.654 0 .478-.156.85-.487 1.145-.326.299-.758.447-1.285.447"></path><path fill="#9E237D" d="M141.203 3.149c0-1.865-1.223-2.132-2.31-2.132-2.452 0-9.768.933-23.56 9.333-8.787-5.736-15.511-7.267-25.179-7.267-.64 0-2.895.264-3.49.264-.781 0-1.523-.198-2.307-.198-.83 0-1.519 1-1.519 2.135 0 .997.537 1.934 1.327 2.066.098 0 1.181.201 2.499.201.543 0 2.654-.27 3.49-.27 7.703 0 14.183 1.069 21.353 5.264-7.655 4.2-12.225 6.801-20.52 6.801-3.191 0-6.48-1.732-6.529-1.732-.195-.135-.394-.135-.592-.135-.878 0-1.571.937-1.571 2.069 0 .802.393 1.6.982 1.934.153.066 3.042 2.066 7.71 2.066 9.573 0 15.559-3.268 24.293-8.604 5.7 3.871 11.542 7.868 18.12 7.868 1.369 0 2.794-.066 4.17-.201.93-.133 1.473-1.063 1.421-2.261-.049-1.27-.784-2-1.662-1.934-1.327.066-2.603.195-3.93.195-5.351 0-10.455-3.195-14.433-5.862 11.98-6.934 18.164-7.531 19.976-7.531.25 0 .495.066.739.066.832 0 1.522-.937 1.522-2.135"></path><path fill="#9E237D" d="M160.928 9.981c-.407.022-.749.11-1.077.34.003.075-1.087.192-4.044 2.556l-.052-1.066c-.14-2.635.062-6.575.182-8.078l-.013-.286c-.065-1.211-1.001-2.091-2.163-2.035-.816.041-1.607.651-1.834 1.519-.566 2.173-1.224 7.984-5.18 8.182-.614.032-.829-1.459-.845-1.814-.17-1.846.205-3.862.589-5.67.052-.217.11-.434.104-.645-.065-1.141-1.07-2.018-2.163-1.968-.888.047-1.604.65-1.832 1.591-.563 2.311-.917 4.689-.79 7.038.224 2.846 2.091 5.824 5.094 5.676 1.978-.1 4.154-1.708 5.081-3.61-.133 1.361.062 3.78.062 3.78-8.92 6.084-22.719 13.05-22.026 26.08.43 8.19 6.815 13.655 14.664 13.268 9.694-.478 14.213-10.843 13.741-19.742-.205-3.777-.843-9.456-2.046-17.893 4.297-2.858 5.488-3.698 5.693-3.776.455-.384.767-.972.728-1.68-.049-.996-.917-1.814-1.873-1.767m-16.535 40.59c-5.53.274-10.042-3.43-10.348-9.197-.55-10.327 11.636-16.855 18.636-21.629 1.142 8.582 1.581 12.987 1.721 15.616.351 6.557-2.771 14.852-10.01 15.21M78.812 5.396c-.69 0-1.301.082-1.685.249-.234-1.16-1.151-1.988-2.225-1.988-.306 0-.618.082-.846.164-4.066 1.824-8.21 5.962-8.21 11.01 0 3.726 2.53 6.376 5.985 6.376 4.756 0 11.047-6.292 11.047-11.424V9.12c-.309-2.406-1.919-3.724-4.066-3.724m-7.57 11.82c-1.138 0-1.802-.509-1.802-1.836 0-3.471 3.507-6.33 6.057-7.654.283 1.324 1.419 2.35 2.743 2.35.38 0 .663-.101 1.04-.205-.66 2.752-5.204 7.346-8.037 7.346M65.6 18.669c.045-1.217-.761-2.21-1.796-2.346-6.35-.519-4.645-14.465-10.764-14.412-3.256.028-14.007 12.975-16.297 12.997-2.97.028-3.383-14.12-8.816-14.072-3.6.031-18.395 14.588-22.488 17.553-.107.145-.28.217-.624.437l.725-2.088C6.6 13.804 9.3 8.634 9.265 4.848 9.219.128 5.469 2.377 5.49 5.09c.017 1.72-2.84 8.1-3.396 9.752-.452 1.29-1.454 3.66-1.444 5.019.023 2.355 1.695 3.918 3.526 3.9.852-.01 1.884-.303 3.191-1.243 3.348-2.46 18.142-16.73 20.484-16.965 1.829-.158 3.107 14.194 8.764 14.147 4.346-.04 13.614-12.474 16.463-13 1.949-.015 2.359 14.057 10.654 14.337 1.09.069 1.821-1.013 1.867-2.368"></path></g></svg> 